<?xml version="1.0" encoding="UTF-8"?>
<svg id="Layer_1" data-name="Layer 1" xmlns="http://www.w3.org/2000/svg" viewBox="0 0 1024 1024">
  <defs>
    <style>
      .cls-1 {
        fill: #4d3f3e;
      }

      .cls-2 {
        fill: #1b5dd1;
      }

      .cls-3 {
        fill: #fd831f;
      }

      .cls-4 {
        fill: #4b2569;
      }

      .cls-5 {
        fill: #f5625d;
      }

      .cls-6 {
        fill: #f7641d;
      }

      .cls-7 {
        fill: #6b43c0;
      }

      .cls-8 {
        fill: #0b3aa3;
      }

      .cls-9 {
        fill: #febeac;
      }
    </style>
  </defs>
  <path class="cls-3" d="M769.93,362.51c-1.31-10.55-5.41-20.55-11.06-29.51-17.26-27.36-55.38-56.83-81.01-76.71,2.52-8.36,3.71-16.86,2.71-25.58-.47-4.22-1.48-8.36-3.02-12.32-9.9-25.27-40.53-32.97-57.31-55.75-7.75-10.52-12.6-23.15-16.28-35.59-6.46-21.86-9.57-51.45-28.61-66.51-4.95-3.91-11.64-7.49-17.97-8.29-2.62-.33-5.55-.3-8.08-1.02-3.04-.87-6.1-2.82-9.02-4.1-7.7-3.36-17.37-3.82-25.6-2.78-14.67,1.87-27.74,8.77-36.8,20.61-18.7,24.43-16.57,58.58-27.44,86.44-2.12,5.43-4.62,10.9-7.64,15.89-6.13,10.15-13.54,19.44-17.25,30.87-2.68,8.27-2.76,16.09-1.6,24.6h0c-17.43,5.23-35.09,9.66-52.53,14.86-2.33-16.86-3.92-34.53-8.72-50.9-3.44-11.75-8.42-20.82-19.44-26.86-1.28-5.22-2.22-11.62-4.8-16.34-1.92-3.51-3.83-4.62-7.6-5.75l-.85,2.4-1.61,1.88c-2.41,1.45-4.94,2.68-7.57,3.68l-4.3,1.35c-3.91,1.24-7.94,1.85-11.98,2.55l-4.09.65c-3.5.27-7.06.69-10.57.69l-3.06-.08c-1.1-.61-1.85-1.8-2.61-2.79-3.16,1.82-4.69,4.02-5.62,7.52-1.46,5.51-.89,11.74-.81,17.39-14.83,13.28-17.02,33.93-18.06,52.73-1.8,32.42.94,74.13,23.74,99.63,14.76,16.51,34.52,22.71,56.13,23.86,24.66,1.31,50.35-3.28,73.74-10.93-3.43,16.58-12.41,45.23-2.66,60.37,4.03,6.27,10.15,9.61,16.82,12.46,6.35,2.11,12.8,3.89,19.33,5.35,35.51,9.09,71.91,10.63,108.29,7.37,7.56-.68,15-2.15,22.52-2.89,8.63-1.95,16.72-4.11,24.71-7.94h0c2.47-1.21,4.95-2.67,7.02-4.48,3.64-3.18,6.33-7.17,8.16-11.63,6.99-17.05,7.31-48.9,8.46-67.68h0c12.51,10.42,25.23,20.67,37.47,31.39-11.82,12.58-34.78,33.35-34.27,51.61.08,2.75.52,6.57,2.1,8.88-3.86,5.23-8.55,9.88-12.03,15.38,1.18.66,2.39,1.29,3.52,2.04,2.63,3.44,5.65,6.67,8.49,9.95l2.66,3.38,7.96,10.31,2.97,3.95,5.95,7.73,2.21,2.87,2.03,3.83c1.08.12,2.18.25,3.27.2,6.49-.33,13.78-7.56,17.85-12.2,3.53.29,6.96.55,10.5.14,23.19-2.72,45.65-22.34,59.51-39.99,15.08-19.2,26.87-41.03,23.76-66.17Z"/>
  <path class="cls-2" d="M696.04,830.52l-.65-3.02c-2.42-16.77-6.58-33.71-9.88-50.38l-20.11-101.32c-7.3-37.05-14.79-74.07-22.49-111.04-4.89-23.46-9.35-46.92-15.77-70.03,3.49-.4,6.65-.85,10.02-1.91,6.73-2.12,14.48-5.71,17.87-12.28l-2.03-3.83-2.21-2.87-5.95-7.73-2.97-3.95-7.96-10.31-2.66-3.38c-2.85-3.27-5.86-6.5-8.49-9.95-1.13-.75-2.34-1.38-3.52-2.04-3.54.03-7.04.02-10.55.55-2.19-7.99-4.31-16-6.35-24.03-7.99,3.83-16.08,5.99-24.71,7.94-7.52.75-14.96,2.21-22.52,2.89-36.39,3.26-72.78,1.72-108.29-7.37-6.53-1.46-12.98-3.24-19.33-5.35h0c-3.58,11.47-5.91,23.16-9.66,34.59l-1.49,4.93c-5.8,22.65-10.61,45.23-14,68.38-4.47,30.47-6.74,61.56-9.57,92.24l-12.08,131.37-5.8,61.74c-.67,7.07-.87,19.38-2.57,25.75l-.27,4.75c-.56,4.37-3.05,18.77-1.34,22.16,4.76,4.73,31.08,11.84,37.76,11.56.41-.01.84-.11,1.24-.19l.11,7.95c0,5.68.93,15.61-.42,20.78h0c1.35-5.18.42-15.1.42-20.78l-.11-7.95c5.15,3.39,45.11,5.79,52.65,4.35.76-.14,1.38-.35,2.05-.74,2.02.85,4.18.57,6.32.44,7.72-.46,29.56-1.79,34.74-7.63,1.51-5.57.76-13.56.77-19.44l.06-.36c1.37-4.61.77-13.55.95-18.57l1.69-47.65,5.05-125.98c.95-26.11,2.07-52.22,3.35-78.31l.12-7.74c2.86,5.42,5.09,28.01,6.19,34.97,9.82,64.12,19.01,128.34,27.56,192.64l4.56,34.11c.61,4.56.67,11.13,2.34,15.34.07,1.51-.04,3.26.61,4.65.35,4.95.95,17.48,3.5,21.36,6.57,5.33,41.74,8,50.81,6.82.67-.09,1.18-.3,1.78-.6h0c.59.31,1.23.53,1.89.65,7.34,1.29,45.06-3.92,50.62-7.79,2.49.45,5.57-.85,7.99-1.61,7.63-2.39,21.41-6.8,25.25-14.13-1.75-7.47-3.05-15.12-4.54-22.64Z"/>
  <g>
    <path class="cls-5" d="M612.85,962.41c5.39,6.49,57.86,24.29,67.21,25.05.56.04.99-.04,1.54-.13,0,0,0,0,0,0-.55.1-.98.18-1.54.13-9.35-.76-61.82-18.57-67.21-25.05-.25-.31-.46-.65-.63-1.02.17.37.38.71.63,1.02Z"/>
    <path class="cls-5" d="M474,951.65l-1.62-6.59c-.24-9.27.42-24.19-2.15-32.7-1.48-4.9-3.55-6.97-7.98-9.34l-1.21.04c-1.02-3.26,2.75-19.58,2.79-24.82.86-1.67.58-4.37.61-6.25-.67.39-1.28.6-2.05.74-7.54,1.43-47.5-.96-52.65-4.35l.11,7.95c0,5.68.93,15.61-.42,20.78l-1.19.11c-7.11,3.2-10.39,4.88-13.3,12.57-.57,1.48-1.1,2.97-1.6,4.47-.95,1.83-5.91,4.36-8.06,4.72-.45.07-.55.02-.95-.05-1.78,1.7-4.32,3.45-6.86,3.51-2.28,2.22-7.49,5.04-10.63,5.69-2.58,2.32-6.08,3.97-9.09,5.72-11.44,6.64-19.56,12.86-26.38,24.54-1.67,4.64-2.97,8.53-.85,13.28,2.01,4.49,8.39,7.35,12.73,8.92,6.04,2.18,23.2,6.24,28.91,4.07,0,0,0,0,0,0,.42.12.83.2,1.27.22,14.27.64,90.67-15.23,99.65-24.53,1.85-1.91,1.08-6.27.92-8.72h0"/>
  </g>
  <path class="cls-9" d="M472.37,945.06l1.62,6.59c.15,2.45.93,6.8-.92,8.72-8.99,9.3-85.38,25.16-99.65,24.53-.44-.01-.84-.1-1.27-.22-5.72,2.17-22.87-1.89-28.91-4.07-4.34-1.56-10.72-4.42-12.73-8.92-2.12-4.75-.83-8.64.85-13.28,1.14,1.72,2.77,2.68,4.55,3.65,25.02,13.51,63.64,2.83,89.56-2.79,12.04-2.61,24.48-4.67,36.26-8.27,3.88-1.18,8.65-2.2,10.65-5.94"/>
  <path class="cls-9" d="M409.73,868.39c5.15,3.39,45.11,5.79,52.65,4.35.76-.14,1.38-.35,2.05-.74-.04,1.88.25,4.59-.61,6.25-.05,5.24-3.81,21.56-2.79,24.82l1.21-.04c-3,1.17-4.82,7.79-6.97,10.58-2.31,3-5.53,4.68-9.27,5.08-4.01.44-10.59.09-13.79-2.69-2.7-2.35-2.28-6.92-2.38-10.2-2.1-1.26-3.36-3.6-5.61-4.89-4.93-2.83-10.52-1.95-15.66-3.55-.12-.04-.23-.08-.34-.11l1.19-.11c1.35-5.18.42-15.1.42-20.78l-.11-7.95Z"/>
  <path class="cls-5" d="M409.73,868.39c5.15,3.39,45.11,5.79,52.65,4.35.76-.14,1.38-.35,2.05-.74-.04,1.88.25,4.59-.61,6.25-.31.32-.39.44-.73.67-5.99,4.2-39.79,1.57-47.77-.06-2.16-.45-4.23-.65-5.48-2.52l-.11-7.95Z"/>
  <path class="cls-9" d="M366.83,928.15c3.13-.66,8.35-3.48,10.63-5.69.24.37.39.83.72,1.12.67.59,4.31,1.12,5.41,1.56,4.32,1.72,16.58,8.33,16.15,13.78-.61,1.19-1.08,1.62-2.22,2.3-1.4.11-2.05.15-3.24-.79-8.71-6.89-6.86-8.75-19.56-11.18-2.63-.5-5.32-.35-7.89-1.09"/>
  <path class="cls-9" d="M384.32,918.94c.39.07.49.12.95.05,2.15-.36,7.1-2.89,8.06-4.72.16.13.32.26.5.39.69.49,1.34.57,2.16.71,4.7.84,11.65,5.89,14.38,9.74.81,1.14,1.38,2.51,1.1,3.94-.16.81-.67,1.53-1.12,2.21-1.39.32-2.02.08-3.24-.71-3.29-2.12-5.81-5.45-9.31-7.2-4.25-2.13-9.33-2.38-13.46-4.42"/>
  <path class="cls-8" d="M427.5,411.11c6.35,2.11,12.8,3.89,19.33,5.35,35.51,9.09,71.91,10.63,108.29,7.37,7.56-.68,15-2.15,22.52-2.89,8.63-1.95,16.72-4.11,24.71-7.94,2.05,8.03,4.17,16.04,6.35,24.03-9.59,2.87-16.68,6.98-24.59,12.93l-4.75,4.06c-2.99-.82-5.82-1.69-8.46-3.36-8.11-5.14-10.09-14.87-12.07-23.6-14.71,1.27-29.31,1.51-44.07,1.34-.53,16.22-1.8,32.37-2.1,48.64-.19,10.11.71,20.32.22,30.38-.09,1.92-.09,3.91-1.78,5.17-1.21.9-3.23.94-4.67.84-4.5-.32-10-2.39-12.96-5.9-2.14-2.54-3.43-5.54-4.15-8.77-3.66-16.51.24-53.54,1.88-71.32-13.64-1.14-26.68-4.36-39.72-8.37-3.75,9.96-7.14,21.15-16.1,27.75-5.98,4.4-11.9,4.83-19.02,3.82l1.49-4.93c3.75-11.43,6.07-23.11,9.66-34.59"/>
  <path class="cls-2" d="M577.65,420.94c8.63-1.95,16.72-4.11,24.71-7.94,2.05,8.03,4.17,16.04,6.35,24.03-9.59,2.87-16.68,6.98-24.59,12.93-1.62-1-3.95-1.2-5.77-1.86-1.83-.67-3.57-1.67-5.32-2.54-1.21-.61-2.71-1.3-3.52-2.41-2.7-3.69-4.63-12.31-6.17-16.9,3.34-.7,6.79-1.31,10.01-2.43,1.63-.57,3.5-1.24,4.29-2.87"/>
  <path class="cls-2" d="M427.5,411.11c6.35,2.11,12.8,3.89,19.33,5.35-2.57,9.61-6.66,21.79-15.73,27.05-4.4,2.55-8.31,2.49-13.26,2.19,3.75-11.43,6.07-23.11,9.66-34.59"/>
  <path class="cls-2" d="M496.03,428.11l13.95.48c-1.09,15.07-2.19,30.39-2.27,45.5-.05,9.4,1.17,26.22-.12,34.87-3.95-.68-8.28-2.32-10.88-5.53-7.67-9.45-2.17-61.59-.68-75.32"/>
  <path class="cls-2" d="M695.39,827.5l.65,3.02c1.49,7.52,2.79,15.18,4.54,22.64-3.84,7.33-17.62,11.73-25.25,14.13-2.41.76-5.5,2.06-7.99,1.61-5.56,3.87-43.28,9.09-50.62,7.79-.66-.12-1.3-.34-1.89-.65-.6.3-1.11.51-1.78.6-9.07,1.18-44.24-1.48-50.81-6.82-2.55-3.88-3.15-16.4-3.5-21.36-.65-1.38-.54-3.14-.61-4.65,3.64,1.57,9.39,1.77,13.36,2.27,35.78,4.56,72.97,1.42,106.92-11.04,5.29-1.94,12.52-4.09,16.99-7.55"/>
  <path class="cls-8" d="M695.39,827.5l.65,3.02c-.48,2.1-.84,2.35-2.67,3.48-4.42,2.71-9.8,4.46-14.65,6.25-32.06,11.78-67.8,15.03-101.65,11.43-5.29-.57-10.93-.9-16.11-2.11-.86-.2-1.53-.56-2.22-1.09-.65-1.38-.54-3.14-.61-4.65,3.64,1.57,9.39,1.77,13.36,2.27,35.78,4.56,72.97,1.42,106.92-11.04,5.29-1.94,12.52-4.09,16.99-7.55"/>
  <path class="cls-9" d="M619.26,436.48c1.18.66,2.39,1.29,3.52,2.04,2.63,3.44,5.65,6.67,8.49,9.95l2.66,3.38,7.96,10.31,2.97,3.95,5.95,7.73,2.21,2.87,2.03,3.83c-3.39,6.57-11.14,10.16-17.87,12.28-3.38,1.07-6.53,1.51-10.02,1.91l-1.6-6.67c-3.65,1.09-7.22,2.26-10.71,3.79-6.06,2.65-14.27,8.61-20.89,8.49-2.01-.03-3.94-.49-5.32-2.05-1.77-2-1.47-4.1-1.26-6.56l-.03-2.99c-1.75.22-4,.52-5.74.15-1.55-.33-3.05-1.38-3.82-2.77-1.84-3.34-.32-8.06.62-11.43l-.33-.47c-2.22-.3-4.27-.8-5.94-2.41-1.17-1.14-1.79-2.74-1.7-4.37.31-5.77,5-9.85,8.96-13.43l4.75-4.06c7.92-5.95,15-10.05,24.59-12.93,3.51-.53,7.01-.52,10.55-.55"/>
  <path class="cls-5" d="M587.34,488.74c3.29-7.7,12.63-14.08,20.34-16.98,1.98-.74,5.62-1.44,7.65-.72l-.09,1.72c-4.41,3.92-11.19,5.11-16.04,8.52-3.04,2.14-8.25,9.28-11.03,10.22-.27.09-.54.16-.81.23l-.03-2.99Z"/>
  <path class="cls-5" d="M578.07,474.23c3.48-8.32,11.07-14.19,19.26-17.61,1.77-.74,3.95-1.17,5.82-.46.35.13.51.26.85.46l.09,1.03c-2.66,2.98-8.56,4.43-12.03,6.67-4.27,2.77-8.54,9.84-13.66,10.37l-.33-.47Z"/>
  <path class="cls-2" d="M372.07,834.86c2.7,2.63,9.6,3.77,13.19,4.7,25.17,6.72,51.13,9.99,77.18,9.71,14.51-.16,29.55-1.15,43.8-3.89,0,5.88.74,13.86-.77,19.44-5.17,5.84-27.01,7.17-34.74,7.63-2.14.13-4.3.41-6.32-.44-.67.39-1.28.6-2.05.74-7.54,1.43-47.5-.96-52.65-4.35-.4.08-.83.18-1.24.19-6.68.28-33-6.83-37.76-11.56-1.71-3.39.78-17.79,1.34-22.16"/>
  <path class="cls-8" d="M372.34,830.1c4.93,2.2,10.48,3.56,15.68,4.97,28.55,7.43,58.08,10.41,87.54,8.85,6.14-.36,12.26-.93,18.35-1.7,3.89-.47,8.25-1.44,12.14-1.25l.25,4.04-.06.36c-14.26,2.74-29.3,3.73-43.8,3.89-26.05.28-52.01-2.99-77.18-9.71-3.59-.93-10.49-2.07-13.19-4.7l.27-4.75Z"/>
  <path class="cls-8" d="M509.1,534.96c-7.23-2.52-25.32-4.79-30.37-8.91-1.12-.91-1.26-1.34-1.33-2.73l.85-.86c.64-.15,1.24-.23,1.91-.16,4.79.45,25.76,5.98,29.83,8.06,1.84.94,3.07,2.23,4.4,3.77,1.85,10.18,4.3,22.32,3.08,32.63l-.12,7.74-.78.93c-3.27-4.36-7.26-33.57-7.47-40.47"/>
  <path class="cls-4" d="M423.96,222.78c-1.17-8.52-1.08-16.34,1.6-24.6,3.71-11.44,11.12-20.72,17.25-30.87,3.02-5,5.52-10.46,7.64-15.89,10.87-27.86,8.73-62.01,27.44-86.44,9.06-11.84,22.13-18.74,36.8-20.61,8.23-1.05,17.91-.59,25.6,2.78,2.92,1.28,5.98,3.23,9.02,4.1,2.53.73,5.46.69,8.08,1.02,6.33.8,13.02,4.38,17.97,8.29,19.04,15.06,22.16,44.65,28.61,66.51,3.67,12.44,8.53,25.07,16.28,35.59,16.78,22.78,47.41,30.48,57.31,55.75,1.54,3.96,2.55,8.1,3.02,12.32,1,8.72-.19,17.21-2.71,25.58-29.68-22.99-62-38.11-99.24-43.53-2.54-.55-5.09-1.11-7.65-1.54-2.57-.43-4.32-.84-6.53.72-.33.82-.6,1.62-1.11,2.35l-3.07,3.11c-1.46,1.22-2.88,2.43-4.48,3.46l-3.47,2.02c-2.99,1.38-5.81,2.49-9.01,3.3-1.76.49-3.53,1.04-5.3,1.45-2.33.41-4.64.8-6.99,1.08l-4.53.09c-2.92,0-5.83-.27-8.69-.83l-3.63-1.09c-2.8-.53-5.29-1.7-7.87-2.86l-3.73-2.5c-1.95-1.53-3.69-3.32-5.46-5.05l-2.51-3.1-1.59-2.57c-4.53.47-9.15,1.05-13.71,1.13-13.66.02-42.03,6.24-55.33,10.83"/>
  <path class="cls-9" d="M478.9,102.54c22.57-5.55,39.87-14.53,55.99-31.34,5.29,18.75,13.37,28.32,28.35,39.82,1.18,7.11,2.73,14.2,5.44,20.91,3.53-3.06,7.29-5.64,12.19-5.25,3.18.25,6.03,1.86,8.04,4.31,3.12,3.81,4.05,9.14,3.49,13.93-.64,5.46-3.32,10.67-7.74,14.03-4.16,3.16-9.96,4.48-15.11,3.78-1.61-.22-3.21-.61-4.8-.97l-.31-.07c-1.97,4.7-5.12,9.35-6.71,14.08-2.29,6.82-1.11,24.13,1.54,30.74.85,2.12,2.12,4.14,4.26,5.14.48.22.46.2.89.31-.33.82-.6,1.62-1.11,2.35l-3.07,3.11c-1.46,1.22-2.88,2.43-4.48,3.46l-3.47,2.02c-2.99,1.38-5.81,2.49-9.01,3.3-1.76.49-3.53,1.04-5.3,1.45-2.33.41-4.64.8-6.99,1.08l-4.53.09c-2.92,0-5.83-.27-8.69-.83l-3.63-1.09c-2.8-.53-5.29-1.7-7.87-2.86l-3.73-2.5c-1.95-1.53-3.69-3.32-5.46-5.05l-2.51-3.1-1.59-2.57c1.85.08,3.91.34,5.54-.73,2.33-1.54,2.76-5.18,3.37-7.68.55-3.48.58-7.06.74-10.57-11.86-6.35-20.79-11.9-24.97-25.61-6.34-20.8.16-42.64,1.22-63.68"/>
  <path class="cls-5" d="M502.64,191.83c13.91,4.27,24.85.68,37.98-3.71-4.46,7.34-11.66,11.67-19.93,13.7-5.87,1.44-12.83,1.87-18.78.58.55-3.48.58-7.06.74-10.57"/>
  <path class="cls-1" d="M533.16,157.61c1.43.24,1.62.21,2.71,1.27.2,1.25.14,1.99-.45,3.13-2.18,4.18-7.43,7.24-11.76,8.65-6.89,2.23-13.44,1.49-19.81-1.79-.62-.48-1.32-.98-1.84-1.57-.92-1.04-1.23-1.74-1.24-3.09,2.51-1.08,9.88,3.27,14.26,3.33,7.69.1,13.01-4.87,18.14-9.93"/>
  <path class="cls-5" d="M511.93,124.14c.82.35,1.57.79,2.35,1.22,4.99,7.64-9.07,13.2-7.95,20.19.66,4.14,5.71,4.23,8.34,6.38.92.75.74,1.17.77,2.23-2.81.05-5.4-.7-8.02-1.68-2.04-.76-3.85-1.77-4.71-3.89-2.84-7,4.1-11.79,6.72-17.2,1.08-2.24,1.54-4.9,2.49-7.24"/>
  <path class="cls-1" d="M537.9,120.09c1.56.31,2.84.61,3.87,1.9,1.63,2.05,2.07,4.83,1.66,7.36-.5,3.06-1.43,4.88-3.95,6.7-1.95-.38-3.26-.66-4.4-2.39-1.57-2.37-1.87-5.2-1.21-7.92.65-2.67,1.66-4.18,4.03-5.66"/>
  <path class="cls-1" d="M493.93,116.33c1.55.13,2.77.32,3.96,1.4,1.65,1.51,2.29,4.06,2.32,6.21.04,3.22-.88,6.04-3.18,8.32-1.47-.11-3.09-.07-4.21-1.17-1.74-1.72-2.45-4.07-2.42-6.48.04-3.36,1.07-6.01,3.53-8.29"/>
  <path class="cls-1" d="M533.61,101.74c4.97-.34,9.13-.36,13.33,2.58,1.62,1.13,3.21,2.34,3.59,4.38-.87,1.23-1.13,1.15-2.53,1.56-5.74-3.7-7.89-3.33-14.3-4.33-1.35-.21-1.93-.29-2.71-1.42.61-1.62,1.28-1.85,2.62-2.77"/>
  <path class="cls-1" d="M495.35,100.22c1.35-.06,2.68-.1,4.02.12,1.88.31,3.38.73,4.5,2.32l-.35,1.35c-2.36,1.56-7.24.37-10.26,1.43-.14.05-.28.11-.43.16-2.08.88-4.81,2.29-7.07,1.4l-.35-.97c.1-.2.2-.4.31-.6,1.89-3.39,6.17-4.41,9.63-5.21"/>
  <path class="cls-5" d="M580.01,135.49c1.46,0,2.45.08,3.76.75l.3.98c-1.51,2.63-5.32,4.99-7.58,7.11-.78.69-1.46,1.1-2.39,1.57l-.92-.51c-.2-.85-.22-1.43.02-2.28,1.09-3.82,3.39-5.83,6.81-7.61"/>
  <path class="cls-6" d="M330.02,140.18c6.47,6.41,6.51,17.14,7.11,25.76-7.69,9.35-19.65,12.36-31.27,13.48-5.03.48-12.3,1.16-16.41-2.42-3.61-3.15-3.7-9.65-3.83-14.09-.12-4.2.26-7.93,1.24-12.02l3.06.08c3.51,0,7.06-.41,10.57-.69l4.09-.65c4.03-.7,8.07-1.31,11.98-2.55l4.3-1.35c2.63-1,5.16-2.23,7.57-3.68l1.61-1.88Z"/>
  <path class="cls-3" d="M304.57,149.63c4.03-.7,8.07-1.31,11.98-2.55.58,8.26.8,16.67,3.93,24.46-4.26,1.29-8.47,2.43-12.84,3.29-1.37-8.37-1.65-16.89-3.07-25.2"/>
  <path class="cls-3" d="M289.91,150.96c3.51,0,7.06-.41,10.57-.69.25,8.27.57,16.89,2.55,24.96-3.71-.01-7.32,0-10.99-.6-1.52-8.01-1.15-15.7-2.12-23.67"/>
  <path class="cls-3" d="M328.41,142.06c3.16,7.12,3.85,15.13,4.09,22.84-2.33,2.03-6.05,4.86-9.12,5.44l-.24-.17h.08c-.19-4.55-.68-21.17-2.37-24.43,2.63-1,5.16-2.23,7.56-3.68"/>
  <path class="cls-6" d="M631.3,421.1c1.86.77,3.22,1.92,4.6,3.36,6.44,6.72,11.95,14.59,18.2,21.55,3.01,3.35,16.17,15.54,17.25,18.21.33.82.13,1.15-.03,1.99-1.57.43-3.9-1.07-4.86-.58-3.09,1.58-5.76,8.48-13.43,11.07l-2.21-2.87-5.95-7.73-2.97-3.95-7.96-10.31-2.66-3.38c-2.85-3.27-5.86-6.5-8.49-9.95-1.13-.75-2.34-1.38-3.52-2.04,3.49-5.5,8.17-10.15,12.03-15.38"/>
  <path class="cls-3" d="M632.18,427.01l9.08,10.97c-2.97,3.9-6.72,6.88-9.98,10.48-2.85-3.27-5.86-6.5-8.49-9.95,3.42-3.62,6.01-7.9,9.4-11.51"/>
  <path class="cls-3" d="M633.94,451.84c3.47-3.17,7.42-6.37,9.94-10.38,2.42,2.79,6.62,6.55,7.77,10.01-.71,3.49-7.15,8-9.76,10.67l-7.96-10.31Z"/>
  <path class="cls-3" d="M655.8,454.84c2.75,2.69,5.46,5.41,8.15,8.16-4.51,3.04-9.42,6.87-13.13,10.83l-5.95-7.73c3.79-3.63,7.63-7.16,10.93-11.26"/>
  <path class="cls-7" d="M543.31,226.2c3.2-.81,6.02-1.92,9.01-3.3,2.63,6.08,6.19,11.7,8.62,17.86-3.96,2.12-7.99,4.17-12.25,5.62l-3.9,1.15c-5.54.96-10.8,1.63-16.44,1.5l-3.48-.07c-.36-7.02.41-13.24,1.62-20.13l4.53-.09c2.35-.28,4.66-.67,6.99-1.08,1.78-.41,3.55-.97,5.3-1.45"/>
  <path class="cls-7" d="M543.31,226.2c3.2-.81,6.02-1.92,9.01-3.3,2.63,6.08,6.19,11.7,8.62,17.86-3.96,2.12-7.99,4.17-12.25,5.62-1.24-6.95-3.21-13.48-5.38-20.18"/>
  <path class="cls-4" d="M538,227.65c1.78-.41,3.55-.97,5.3-1.45,2.17,6.7,4.14,13.23,5.38,20.18l-3.9,1.15c-1.88-6.79-4.29-13.3-6.78-19.87"/>
  <path class="cls-4" d="M526.48,228.83l4.53-.09c-.88,6.68-2.37,13.59-2.68,20.3l-3.48-.07c-.36-7.02.41-13.24,1.62-20.13"/>
  <path class="cls-7" d="M506.28,224.05c2.59,1.15,5.07,2.33,7.87,2.86l3.63,1.09c2.86.56,5.78.84,8.69.83-1.21,6.9-1.99,13.12-1.62,20.13-5.15.01-9.86-.75-14.82-2.01l-3.29-1.16c-4.75-1.64-9.08-3.94-13.41-6.44,3.48-5.52,8.57-10.47,12.95-15.32"/>
  <path class="cls-7" d="M506.28,224.05c2.59,1.15,5.07,2.33,7.87,2.86-3.24,6.02-6.28,12.06-7.41,18.89-4.75-1.64-9.08-3.94-13.41-6.44,3.48-5.52,8.57-10.47,12.95-15.32"/>
  <path class="cls-4" d="M514.15,226.91l3.63,1.09c-2.88,6.19-5.47,12.52-7.75,18.96l-3.29-1.16c1.13-6.83,4.17-12.87,7.41-18.89"/>
  <path class="cls-7" d="M564.44,211.95c2.21-1.56,3.95-1.15,6.53-.72,2.56.43,5.11.99,7.65,1.54,1.26,1.61,2.43,2.96,2.16,5.15-.25,2.05-1.82,4.35-2.8,6.16-.85,1.45-1.63,3.03-2.67,4.34-3.32,4-6.88,7.3-11.03,10.41l-3.34,1.93c-2.43-6.17-5.99-11.78-8.62-17.86l3.47-2.02c1.6-1.03,3.02-2.24,4.48-3.46l3.07-3.11c.51-.73.78-1.53,1.11-2.35"/>
  <path class="cls-7" d="M564.44,211.95c2.21-1.56,3.95-1.15,6.53-.72,2.56.43,5.11.99,7.65,1.54,1.26,1.61,2.43,2.96,2.16,5.15-.25,2.05-1.82,4.35-2.8,6.16-5.27-1.96-9.92-6.71-14.64-9.77.51-.73.78-1.53,1.11-2.35"/>
  <path class="cls-4" d="M560.27,217.42l3.07-3.11c4.73,3.06,9.38,7.81,14.64,9.77-.85,1.45-1.63,3.03-2.67,4.34-5.51-3.41-10.39-6.36-15.04-11"/>
  <path class="cls-4" d="M555.79,220.88c3.21,4.94,7.92,12.05,8.49,17.96l-3.34,1.93c-2.43-6.17-5.99-11.78-8.62-17.86l3.47-2.02Z"/>
  <path class="cls-7" d="M479.29,211.95c4.55-.08,9.18-.66,13.71-1.13l1.59,2.57,2.51,3.1c1.77,1.73,3.51,3.52,5.46,5.05l3.73,2.5c-4.38,4.85-9.46,9.79-12.95,15.32-1.1-.6-2.14-1.44-3.18-2.15-3.71-3.12-6.44-7.11-9.24-11.02l-1.82-4.15c-.56-1.91-1.29-3.98-1.49-5.96-.18-1.78.62-2.78,1.68-4.13"/>
  <path class="cls-7" d="M479.29,211.95c4.55-.08,9.18-.66,13.71-1.13l1.59,2.57c-5.14,2.92-10.3,5.81-15.49,8.65-.56-1.91-1.29-3.98-1.49-5.96-.18-1.78.62-2.78,1.68-4.13"/>
  <path class="cls-4" d="M502.55,221.55l3.73,2.5c-4.38,4.85-9.46,9.79-12.95,15.32-1.1-.6-2.14-1.44-3.18-2.15,2.86-6.31,7.63-10.77,12.4-15.66"/>
  <path class="cls-4" d="M494.58,213.39l2.51,3.1c-4,4.4-10.59,7.65-16.18,9.7l-1.82-4.15c5.19-2.84,10.35-5.72,15.49-8.65"/>
  <path class="cls-6" d="M626,329.21c-3.85-3.35-12.67-8.55-13.46-13.7.45-1.11.41-1.11,1.46-1.66,3.64.64,44.75,37.08,51.55,42.35,4.7-4.49,11.34-11.75,18.33-11.47.49.02.88.14,1.34.29l.32.54c-1.75,3.93-12.75,8.55-16.91,14.79-.35.53-.81,1.03-1.22,1.52-1.72.2-2.48-.35-3.93-1.27-12.24-10.72-24.97-20.97-37.47-31.39"/>
  <path class="cls-6" d="M433.42,257.58c1.05.2,1.52.54,2.35,1.16.8,1.91.42,2.53-.41,4.32-8.24,17.67-11.66,27.49-14.53,47.22-1.41,9.68-1.8,19.84-4.92,29.15-.45.16-1.09.15-1.58.2-.55-.69-.74-.89-.88-1.76-.82-5.08.77-11.85,1.42-16.95,2.68-20.8,5.71-45.98,18.56-63.35"/>
  <path class="cls-6" d="M370.33,237.46c1.19.46,1.73.84,2.41,1.93,4.79,7.61,4.41,23.48,2.39,32-1.48-.17-2.03-.13-3.26-1.02-.81-3.4.17-7.45.05-10.97-.17-5.05-3.33-18.07-1.59-21.93"/>
  <path class="cls-5" d="M667.34,868.9c.18,2.97.53,5.86.98,8.8.74,6.11.78,14.11,2.76,19.86.1.07.21.15.31.22,1.59,1.07,3.17,1.36,4.85,2.15,6.65,3.14,8.3,8.76,10.11,15.42.98,2.47,4.19,3.67,6.45,4.77,1.97,1.65,6.33,4.7,8.89,4.93,1.94,1.36,5.27,4,7.67,4.15.09.08.19.16.28.24,7.79,6.56,17.61,10.42,24.12,18.64,3.05,3.85,4.57,8.4,7.29,12.29,1.42,5.24,3.72,11.18.95,16.38-3.07,5.74-11.4,8.57-17.24,10.13-9.66,2.59-34.23,4.8-43.17.45-.55.1-.98.18-1.54.13-9.35-.76-61.82-18.57-67.21-25.05-2.03-2.44-1.19-7.21-.82-10.1.45-1.67.6-3.38.79-5.09-.11-1.61-.12-3.22-.14-4.83-.18-12.11-.93-26.18,8.05-35.43l.78-.29c-2.21-8.03-4.89-16.36-5.67-24.68-1.07-1.55-.93-4.13-1.01-5.95.61.32,1.21.52,1.89.65,7.34,1.29,45.06-3.92,50.62-7.79"/>
  <path class="cls-9" d="M612.83,947.22c1.4,3.4,7.34,5.57,10.59,6.92,7.79,3.25,16,5.44,24.01,8.07,5.53,1.82,10.95,3.98,16.55,5.58,22.16,6.33,46.91,8.52,68.62-.66,2.39-1.01,7.07-3.15,8.13-5.7.17-.42.21-.59.35-1.06,1.42,5.24,3.72,11.18.95,16.38-3.07,5.74-11.4,8.57-17.24,10.13-9.66,2.59-34.23,4.8-43.17.45-.55.1-.98.18-1.54.13-9.35-.76-61.82-18.57-67.21-25.05-2.03-2.44-1.19-7.21-.82-10.1.45-1.67.6-3.38.79-5.09"/>
  <path class="cls-9" d="M667.34,868.9c.18,2.97.53,5.86.98,8.8.74,6.11.78,14.11,2.76,19.86-.09.06-.18.11-.28.16-1.91,1.03-4.11.89-6.2,1.27-6.21,1.13-13.6,3.62-15.75,10.24-.56,1.72-.69,4.56-1.5,6.06-1.82,2.43-5.05,4.38-8.07,4.84-3.56.54-7.78-1.77-10.48-3.9-1.99-1.57-7.89-9.21-8.06-9.28l.78-.29c-2.21-8.03-4.89-16.36-5.67-24.68-1.07-1.55-.93-4.13-1.01-5.95.61.32,1.21.52,1.89.65,7.34,1.29,45.06-3.92,50.62-7.79"/>
  <path class="cls-5" d="M667.34,868.9c.18,2.97.53,5.86.98,8.8-3.76,4.08-29.06,5.51-35.11,5.76-4.04.17-14.59,1.1-17.37-1.46-1.07-1.55-.93-4.13-1.01-5.95.61.32,1.21.52,1.89.65,7.34,1.29,45.06-3.92,50.62-7.79"/>
  <path class="cls-9" d="M701.71,925.04c1.94,1.36,5.27,4,7.67,4.15l-.44,1.99c-.56.4-.84.47-1.54.51-5.51.34-11.86-.3-17.13,1.46-3.94,1.31-7.89,7.33-11.8,7.64-1.39.11-1.79-.16-2.85-1.02-.36-1.19-.53-1.65-.18-2.9,1-3.54,10.43-9.04,13.95-9.87,3.06-.72,9.47-.11,11.84-1.63.16-.1.32-.22.48-.32"/>
  <path class="cls-9" d="M692.81,920.11c-3.31,2.63-11.41,2.14-15.65,3.84-4.51,1.81-7.89,6.5-12.86,7.34-1.1-.42-1.2-.51-1.9-1.47-.02-1.35.22-2.09.97-3.22,3.82-5.75,10.54-9.64,17.25-10.81,1.78-.31,3.57-.07,5.38-.39l.34-.06c.98,2.47,4.19,3.67,6.45,4.77"/>
  <path class="cls-9" d="M289.86,75.9c-1.07-6.95-5.48-33.65-2.55-38.51.89-1.47,3.72-2.76,5.37-3.11,1.19-.25,2.27.08,3.25.78,1.74,1.24,2.9,3.3,3.64,5.27,2.84,7.6,4.91,25.51,6.42,34.41,1.41-9.09-1.34-28.41,2.24-35.45.79-1.56,1.9-2.85,3.63-3.35,1.37-.41,2.85-.23,4.09.49,1.63.95,2.68,2.56,3.24,4.32,2.24,7.11,2.4,15.31,3.31,22.73,1.1,9.63,3,19.16,5.67,28.48,1.99-5.22,3.83-10.71,6.94-15.38,2.1-3.16,4.64-5.54,8.53-6.15,1.41-.22,2.92-.1,4.06.84,2.18,1.81,2.24,5.81,1.95,8.4-.78,7.04-9.55,31.98-12.57,39.08-1.67,3.93-4.78,8.41-5.79,12.46-.52,2.09-.61,4.44-.39,6.57l-.85,2.4-1.61,1.88c-2.41,1.45-4.94,2.68-7.56,3.68l-4.3,1.35c-3.91,1.24-7.94,1.85-11.98,2.55l-4.09.65c-3.5.27-7.06.69-10.57.69l-3.06-.08c-1.1-.61-1.85-1.8-2.61-2.79-3.27-6.65-8.54-12.27-11.86-19.02-5-10.17-7.4-22.19-10.89-33-2.33-7.21-5.44-14.38-7.37-21.69-.38-1.49-.57-3.03-.55-4.56.02-2.73.45-5.34,2.48-7.33,1.15-.43,1.78-.65,3.04-.25,6.83,2.18,13.12,18.87,16.73,24.92-2.29-10.18-7.23-26.92-6.69-36.84.14-2.59.52-5.37,2.55-7.19,1.14-.53,2.03-.53,3.22-.11,8.73,3.08,11.48,24.79,14.95,32.87"/>
  <path class="cls-5" d="M324.36,91.62c1.04-.09,1.72-.03,2.73.22-.13,1.97-11.76,8.98-13.86,11.11-6.52,6.62-6.94,14.58-6.93,23.34l-1.43-.48c-1.16-1.14-1.84-2.3-2.21-3.9-1.24-5.35,1.54-12.73,4.3-17.23,3.91-6.39,10.07-11.34,17.4-13.05"/>
  <path class="cls-5" d="M305.11,76.32c1.61-.19,3.46-.35,5.07-.18,1.25.13,2.08.47,2.87,1.42h-.11s-.05.19-.05.19c-3.25,1.89-8.35,2.16-12,3.44-6.94,2.44-13.13,6.23-19.34,10.1-1.05.64-2.14,1.39-3.26,1.88-1.24.54-1.68.65-2.91.17.09-.65.05-1.03.44-1.57,5.69-8.09,19.78-13.76,29.29-15.45"/>
</svg>